<svg viewBox="0 0 36 36" width="36" height="36" fill="currentColor">
  <title>Cole Bemis Logo</title>
  <path d="M36,26c0,5.52-4.48,10-10,10H10c-1.1,0-2-0.9-2-2s0.9-2,2-2h16c3.31,0,6-2.69,6-6s-2.69-6-6-6H10c-1.1,0-2-0.9-2-2c0-1.1,0.9-2,2-2h16c3.31,0,6-2.69,6-6s-2.69-6-6-6H10C8.9,4,8,3.1,8,2s0.9-2,2-2h16c5.52,0,10,4.48,10,10c0,3.27-1.58,6.18-4.01,8 C34.42,19.82,36,22.73,36,26z"></path>
  <path d="M28,26c0,1.1-0.9,2-2,2H10C4.48,28,0,23.52,0,18C0,12.48,4.48,8,10,8h16c1.1,0,2,0.9,2,2s-0.9,2-2,2H10c-3.31,0-6,2.69-6,6c0,3.31,2.69,6,6,6h16C27.1,24,28,24.9,28,26z"></path>
</svg>